<svg xmlns="http://www.w3.org/2000/svg" width="512" height="512" viewBox="0 0 96 96" role="img" aria-label="Lotus">
  <path d="M48 55C35 43 35 26 48 10c13 16 13 33 0 45Z" fill="#8b3f64"/>
  <path d="M44 61C27 55 18 42 21 25c17 4 27 17 23 36Z" fill="#b86b8d"/>
  <path d="M52 61c17-6 26-19 23-36-17 4-27 17-23 36Z" fill="#b86b8d"/>
  <path d="M41 68C23 68 11 58 7 42c18-1 31 8 34 26Z" fill="#376b61"/>
  <path d="M55 68c18 0 30-10 34-26-18-1-31 8-34 26Z" fill="#376b61"/>
  <path d="M48 72C32 72 20 67 12 57c10 22 25 29 36 29s26-7 36-29C76 67 64 72 48 72Z" fill="#64304a"/>
  <path d="M48 55c-7 0-13 4-17 11 6 4 11 6 17 6s11-2 17-6c-4-7-10-11-17-11Z" fill="#ead7df"/>
</svg>
