<svg xmlns="http://www.w3.org/2000/svg" width="1200" height="630" viewBox="0 0 1200 630" role="img" aria-labelledby="title desc">
  <title id="title">Lotus Med — постачання медичних виробів</title>
  <desc id="desc">Фірмова картка Lotus Med для поширення сторінок сайту</desc>
  <defs>
    <linearGradient id="bg" x1="0" x2="1" y1="0" y2="1"><stop offset="0" stop-color="#f8f4ef"/><stop offset="1" stop-color="#eee6df"/></linearGradient>
    <linearGradient id="accent" x1="0" x2="1"><stop offset="0" stop-color="#8b3f64"/><stop offset="1" stop-color="#376b61"/></linearGradient>
  </defs>
  <rect width="1200" height="630" fill="url(#bg)"/>
  <rect width="28" height="630" fill="url(#accent)"/>
  <circle cx="1070" cy="92" r="250" fill="#8b3f64" opacity=".07"/>
  <circle cx="1140" cy="590" r="290" fill="#376b61" opacity=".08"/>
  <g transform="translate(86 72) scale(1.05)">
    <path d="M48 55C35 43 35 26 48 10c13 16 13 33 0 45Z" fill="#8b3f64"/><path d="M44 61C27 55 18 42 21 25c17 4 27 17 23 36Z" fill="#b86b8d"/><path d="M52 61c17-6 26-19 23-36-17 4-27 17-23 36Z" fill="#b86b8d"/><path d="M41 68C23 68 11 58 7 42c18-1 31 8 34 26Z" fill="#376b61"/><path d="M55 68c18 0 30-10 34-26-18-1-31 8-34 26Z" fill="#376b61"/><path d="M48 72C32 72 20 67 12 57c10 22 25 29 36 29s26-7 36-29C76 67 64 72 48 72Z" fill="#64304a"/><path d="M48 55c-7 0-13 4-17 11 6 4 11 6 17 6s11-2 17-6c-4-7-10-11-17-11Z" fill="#ead7df"/>
  </g>
  <text x="220" y="128" fill="#211827" font-family="Arial, Helvetica, sans-serif" font-size="54" font-weight="700" letter-spacing="2">LOTUS MED</text>
  <text x="90" y="270" fill="#211827" font-family="Arial, Helvetica, sans-serif" font-size="55" font-weight="700">Медичні вироби</text>
  <text x="90" y="337" fill="#211827" font-family="Arial, Helvetica, sans-serif" font-size="55" font-weight="700">для клінік України</text>
  <text x="92" y="410" fill="#635c64" font-family="Arial, Helvetica, sans-serif" font-size="28">Meril · Sinapi · Geister</text>
  <rect x="90" y="476" width="248" height="52" rx="26" fill="#8b3f64"/><text x="214" y="510" fill="#fff" font-family="Arial, Helvetica, sans-serif" font-size="22" font-weight="700" text-anchor="middle">lotusmed.com.ua</text>
  <g transform="translate(725 240)">
    <rect width="310" height="64" rx="12" fill="#fff" stroke="#ded3d6"/><circle cx="36" cy="32" r="10" fill="#8b3f64"/><text x="64" y="40" fill="#211827" font-family="Arial, Helvetica, sans-serif" font-size="22" font-weight="700">Клапани та стенти</text>
    <rect x="40" y="86" width="310" height="64" rx="12" fill="#fff" stroke="#ded3d6"/><circle cx="76" cy="118" r="10" fill="#376b61"/><text x="104" y="126" fill="#211827" font-family="Arial, Helvetica, sans-serif" font-size="22" font-weight="700">Дренажні системи</text>
    <rect y="172" width="350" height="64" rx="12" fill="#fff" stroke="#ded3d6"/><circle cx="36" cy="204" r="10" fill="#64304a"/><text x="64" y="212" fill="#211827" font-family="Arial, Helvetica, sans-serif" font-size="22" font-weight="700">Хірургічні інструменти</text>
  </g>
</svg>
